<svg xmlns="http://www.w3.org/2000/svg" width="41" height="15" viewBox="0 0 41 15" fill="none">
  <path d="M32.3338 3.57338C32.2761 3.64547 32.7477 3.16146 33.7528 3.29327C33.9959 3.33447 34.2657 3.42303 34.5231 3.5878C34.7724 3.74021 35.0401 4.03268 35.1781 4.27777C35.5365 4.86477 35.6477 5.67008 35.3058 6.4651C35.1328 6.85437 34.8444 7.23128 34.4469 7.50521C34.105 7.74618 33.6169 7.96656 33.1391 8.04689C32.1649 8.22814 30.9909 7.95215 30.165 7.12624C29.3823 6.31062 28.958 5.16753 29.0816 3.96059C29.2114 2.76395 29.891 1.55289 31.1165 0.825844L31.4708 0.624L31.9568 0.40362C32.2761 0.284162 32.5891 0.18324 32.9249 0.115273C33.5901 -0.0206624 34.2945 -0.0412586 34.9927 0.0699611C36.385 0.282102 37.7547 1.0524 38.6444 2.24698C39.4992 3.38184 40.01 4.81534 40.0141 6.29415C40.0223 7.03355 39.9049 7.78326 39.664 8.50618C39.6001 8.70185 39.5486 8.82955 39.4456 9.07464L39.2356 9.51746C39.1037 9.79963 38.8689 10.1971 38.665 10.5061C37.8288 11.7727 36.4757 12.8705 34.9083 13.3484C33.3492 13.853 31.7282 13.8468 30.2082 13.6388C27.1579 13.1877 24.3898 11.9787 21.7926 10.6029C19.1954 9.2147 16.7568 7.61437 14.4541 5.92959L13.6159 5.32612C13.3564 5.14694 13.0721 4.96363 12.7941 4.79268C12.2318 4.45078 11.6551 4.13978 11.0681 3.87203C9.89414 3.33859 8.67072 2.97815 7.50086 2.89577C6.32687 2.80514 5.23526 3.06054 4.36198 3.65165C3.49076 4.2407 2.81315 5.149 2.36209 6.13968C1.90691 7.09328 1.7545 8.11074 1.90897 9.03757C2.05726 9.97058 2.53304 10.815 3.17358 11.4597C4.44231 12.782 6.35776 13.2804 7.68828 12.8067C8.02194 12.6955 8.33088 12.541 8.58834 12.335L8.68926 12.2629L8.78194 12.1806C8.86021 12.1126 8.93229 12.0467 8.97143 12.0014C9.06617 11.9066 9.17533 11.781 9.24948 11.6677C9.57902 11.2002 9.60785 10.7553 9.44308 10.399C9.28243 10.0385 8.94259 9.77079 8.61099 9.64516C8.27733 9.51334 7.95397 9.49686 7.7027 9.5257C7.4473 9.55453 7.25782 9.62456 7.13218 9.67399C7.0086 9.73372 6.94476 9.76256 6.94476 9.76256L6.88709 9.78933C6.58638 9.92939 6.22594 9.80993 6.07971 9.51746C5.9376 9.23529 6.055 8.89751 6.33511 8.74922C6.33511 8.74922 6.43191 8.69773 6.61934 8.60093C6.81294 8.51442 7.10953 8.38879 7.52557 8.32494C7.93956 8.25903 8.48329 8.25903 9.07234 8.46087C9.65316 8.66066 10.3061 9.08082 10.6933 9.8367C10.8848 10.2095 10.9734 10.6688 10.9342 11.1281C10.8972 11.5894 10.7159 12.0343 10.4647 12.4236C10.339 12.6234 10.2031 12.7943 10.028 12.9817C9.93739 13.0827 9.8653 13.1506 9.79528 13.2145L9.66552 13.336L9.52547 13.4493C9.15679 13.7623 8.70779 14.0136 8.2176 14.199C6.21977 14.9549 3.67819 14.3308 1.92339 12.644C1.04393 11.7995 0.351895 10.6523 0.10886 9.34445C-0.144474 8.04071 0.0532483 6.64016 0.609347 5.39821C1.13249 4.18715 1.94399 2.96991 3.19418 2.07398C4.43819 1.1698 6.08795 0.772293 7.6162 0.864976C10.6995 1.05858 13.4243 2.53121 15.7558 4.2407C18.0091 5.86163 20.3859 7.39193 22.8636 8.69361C25.3372 9.97882 27.9468 11.0663 30.5378 11.4844C31.8271 11.6759 33.1082 11.6656 34.2121 11.3155C35.3223 10.9819 36.21 10.2754 36.8505 9.34857C36.9411 9.23529 36.9906 9.12201 37.0647 9.01079C37.1327 8.89957 37.2027 8.79453 37.2748 8.63388L37.489 8.19312C37.5075 8.13751 37.5858 7.96656 37.6188 7.85534C37.7938 7.35074 37.8824 6.82347 37.8803 6.30033C37.8803 5.24992 37.5487 4.22834 36.9679 3.40037C36.4221 2.62184 35.5633 2.10075 34.6529 1.93186C34.1998 1.84742 33.7364 1.84536 33.2956 1.92156C33.0752 1.95658 32.8569 2.02249 32.6571 2.09045L32.3894 2.19549L32.033 2.38498C31.3843 2.74129 30.9188 3.45598 30.8323 4.1542C30.7355 4.85447 30.9703 5.57946 31.3616 6.03052C31.7509 6.46716 32.3564 6.6484 32.8796 6.57838C33.1555 6.53718 33.3533 6.46716 33.5881 6.3271C33.7673 6.21794 33.8991 6.06347 33.9856 5.89664C34.1627 5.55886 34.1133 5.16547 33.9959 4.92862C33.8558 4.63615 33.6869 4.55994 33.5016 4.50227C33.1267 4.43019 32.9764 4.57436 32.9269 4.58878C32.6365 4.74737 32.2658 4.65057 32.101 4.37046C31.9362 4.09035 32.0372 3.73197 32.3276 3.57132L32.3338 3.57338Z" fill="#793A4A"/>
</svg>
