<svg xmlns="http://www.w3.org/2000/svg" width="45" height="42" viewBox="0 0 45 42" fill="none">
  <g clip-path="url(#clip0_72_939)">
    <path d="M23.1541 14.8341C20.0894 14.6222 17.2894 16.8922 17.3576 19.9292C17.4218 22.8428 20.0894 25.0473 23.0378 24.7313C25.7816 24.9857 28.3729 23.1473 28.5936 20.3647C28.8342 17.3662 26.1346 15.0384 23.1581 14.8341H23.1541ZM22.5363 23.999C22.3959 23.9836 22.2997 24.053 22.2475 24.1532C19.949 23.7138 17.9834 22.1722 18.0917 19.6517C18.208 16.9693 20.7513 15.2889 23.3747 15.5895C25.6251 15.8478 27.7512 17.4703 27.8635 19.775C28.0079 22.7234 25.2962 24.3112 22.5363 23.9952V23.999Z" fill="#793A4A"/>
    <path d="M44.9277 21.3089C44.683 20.5959 43.6721 20.1604 43.0263 20.6653C42.581 20.7308 42.1799 21.0429 41.9994 21.4515C40.4309 21.3281 38.8304 21.2087 37.2539 21.2549C37.2459 21.2511 37.2378 21.2434 37.2298 21.2395C37.7232 21.1393 38.1845 20.9389 38.5496 20.5612C39.8894 19.1699 39.1072 17.2737 41.1971 16.1907C41.5942 15.9865 41.2974 15.4931 40.9123 15.5471C38.7541 15.84 37.4504 13.543 35.2963 13.6625C35.1439 13.6702 34.9955 13.6933 34.847 13.7203C36.1307 13.0458 37.3582 12.1825 38.4132 11.2499C38.5095 11.2499 38.5977 11.2075 38.6418 11.1304C39.1112 11.5081 39.8292 11.5852 40.3707 11.273C41.1329 10.8336 41.3736 9.80845 40.824 9.12629C40.2985 8.47881 39.3037 8.33621 38.6458 8.88348C38.1083 9.33055 37.8716 10.1515 38.0241 10.8298C36.9811 11.6468 35.9221 12.3829 34.823 13.0921C34.9594 12.5564 34.9393 12.0168 34.8631 11.4657C34.6505 9.92407 34.2894 8.78328 34.831 7.24166C34.9353 6.94876 34.5502 6.67127 34.2854 6.83699C32.4923 7.95081 30.2941 7.36885 28.4689 8.25527C29.3995 7.10292 30.3021 5.91202 31.1325 4.698C32.0029 4.78279 33.062 4.35499 33.4791 3.61887C33.9725 2.75172 33.1221 1.81133 32.2677 1.59936C31.4454 1.3951 30.4585 1.71498 30.1938 2.54745C30.0012 3.14097 30.2018 3.86939 30.7514 4.20083C30.6992 4.25094 30.6712 4.32416 30.6671 4.39353C29.6723 5.68078 28.7296 7.04125 27.8592 8.40558C27.9113 7.8005 27.8511 7.18385 27.6145 6.57106C26.8523 4.60551 24.4214 4.2124 23.5349 2.37788C23.4065 2.1158 23.0374 2.17747 22.893 2.37788C21.6896 4.05823 19.4392 4.48218 18.7292 6.467C18.6369 5.08726 18.3481 3.67669 17.9309 2.38558C17.9189 2.3509 17.9028 2.32777 17.8828 2.3008C18.3842 1.93081 18.5968 1.27562 18.2599 0.693665C17.8226 -0.0617251 16.7596 -0.146514 16.0095 0.192641C15.3315 0.497109 14.9063 1.21011 15.3115 1.88841C15.7166 2.56287 16.5029 2.63224 17.2089 2.46652C17.249 2.49735 17.2931 2.52433 17.3453 2.53204C17.3453 2.53204 17.3453 2.53589 17.3453 2.53975C17.7504 4.11604 18.0272 5.66922 18.2759 7.26479C18.0553 6.99886 17.8026 6.75606 17.5017 6.54794C15.4479 5.13736 12.7241 6.24347 10.5459 5.14892C10.2852 5.01789 10.0124 5.18361 9.98832 5.45725C9.82787 7.41124 8.72874 9.4269 9.49893 11.377C9.67543 11.828 9.93216 12.2326 10.241 12.5988C9.45882 12.356 8.69264 12.1055 7.95454 11.7278C7.12819 11.3077 6.42619 10.7527 5.67205 10.2362C5.74425 10.1476 5.81245 10.0513 5.85657 9.94334C6.13737 9.25347 5.6199 8.47881 4.90186 8.30538C4.1437 8.12038 3.29729 8.6638 3.18898 9.40763C3.14887 9.67356 3.42566 9.81616 3.61018 9.70439C3.63024 10.0397 3.80674 10.3711 4.1076 10.56C4.45258 10.772 4.86174 10.7527 5.20672 10.5908C6.05313 11.4734 7.26056 12.2057 8.52416 12.6874C8.41184 12.7105 8.29952 12.7337 8.1872 12.7683C6.19353 13.385 5.07836 15.4662 2.90819 15.6974C2.60332 15.7282 2.39874 16.0713 2.64744 16.3063C4.28009 17.8672 4.64513 20.3569 6.72705 21.517C7.38893 21.887 8.09494 22.0912 8.821 22.1799C7.0961 22.6732 5.39125 23.2667 3.69041 23.8256C3.6182 23.7099 3.49385 23.6675 3.37752 23.6868C3.03254 22.8736 1.96149 22.4921 1.1191 22.8235C0.172403 23.1935 -0.260829 24.2842 0.152346 25.1706C0.56151 26.0532 1.65663 26.5889 2.61134 26.1919C3.39357 25.8643 3.91906 25.0165 3.80674 24.2071C5.54769 23.7176 7.3087 23.259 9.0296 22.704C8.7849 22.916 8.55625 23.1588 8.35568 23.4363C6.9918 25.3325 7.75798 27.6102 5.81245 29.306C5.61188 29.4794 5.71216 29.8378 5.9729 29.8957C8.24336 30.4005 10.8748 31.3525 13.1814 30.5123C13.5665 30.3736 13.9195 30.1886 14.2525 29.9689C13.4261 31.1174 12.6399 32.2967 11.8376 33.4568C11.6129 33.7805 11.1597 34.2507 11.0393 34.6901C10.6422 34.3471 10.0846 34.2083 9.54707 34.3895C8.83705 34.6284 8.45998 35.4146 8.63247 36.1007C8.80897 36.8098 9.523 37.2145 10.2611 37.0988C11.1436 36.9601 11.4806 36.1931 11.5127 35.4146C11.6811 35.3607 11.8175 35.1564 11.6932 34.9984C11.4445 34.6785 13.2175 32.4894 13.4542 32.131C14.0158 31.2831 14.5774 30.4352 15.1109 29.5758C14.8461 30.3659 14.7017 31.1906 14.794 32.0578C14.8782 32.8401 15.1711 33.4838 15.516 34.1813C16.2461 35.6536 16.6232 36.8599 16.4828 38.5094C16.4547 38.8255 16.9 38.968 17.1166 38.7599C18.7813 37.1644 21.3807 36.6942 22.8369 34.8789C23.1257 34.5205 23.3182 34.1428 23.4506 33.7574C23.7154 35.3645 24.0403 36.9755 24.4093 38.5595C24.4495 38.733 24.6019 38.7831 24.7383 38.7445C24.6861 38.7638 24.634 38.7753 24.5858 38.8023C24.5618 38.8139 24.5497 38.8332 24.5297 38.8447C23.7996 38.7638 23.1337 39.4729 23.226 40.1782C23.3303 40.9876 24.2369 41.4924 25.0351 41.3884C25.8615 41.2805 26.6156 40.4942 26.4351 39.6656C26.2787 38.9449 25.4603 38.5017 24.7543 38.7407C24.8867 38.6983 24.995 38.5788 24.9629 38.4131C24.6179 36.6209 24.2008 34.8173 23.7194 33.0521C23.8879 33.4414 24.1125 33.8152 24.4134 34.1582C26.2145 36.2163 29.4356 35.0639 31.7823 36.0891C32.0511 36.2047 32.4282 36.0082 32.3198 35.6921C31.5938 33.5493 33.6075 31.657 33.094 29.5449C33.419 29.7916 33.7519 30.0151 33.9806 30.2001C34.843 30.8939 35.7416 31.6338 36.7123 32.1811C36.3433 32.4856 36.1026 32.9558 36.1307 33.4028C36.1909 34.2893 37.286 34.7171 38.0883 34.5475C38.9186 34.374 39.5083 33.53 39.1794 32.7322C38.9467 32.1657 38.2126 31.892 37.651 32.1156C37.6871 31.9961 37.6189 31.8458 37.4625 31.8574C37.3622 31.8651 37.2659 31.8882 37.1737 31.919C37.1656 31.8689 37.1416 31.8227 37.0894 31.7803C36.7966 31.549 34.474 29.9882 33.2585 28.99C33.8963 29.252 34.5542 29.4332 35.1679 29.4679C37.1656 29.5835 38.1484 27.5832 40.0418 27.221C40.4309 27.1477 40.3547 26.6467 40.0418 26.5349C38.2808 25.9144 39.2034 22.9969 37.8716 21.6943C39.2195 21.7945 40.5633 21.8677 41.9111 22.0103C41.9954 22.7657 42.7976 23.3168 43.5719 23.2513C44.5386 23.1665 45.2326 22.1953 44.9277 21.305V21.3089ZM38.8063 9.67741C39.059 9.20722 39.6046 8.99525 40.098 9.29201C40.6596 9.62731 40.6315 10.3866 40.1381 10.772C39.6567 11.1458 39.055 10.9608 38.6378 10.6101C38.6178 10.2902 38.6458 9.97803 38.8063 9.68127V9.67741ZM30.7273 2.74401C30.9239 2.19674 31.5697 2.01945 32.1113 2.1582C32.7852 2.32777 33.3307 3.03306 32.737 3.59575C32.372 3.94261 31.9307 4.06209 31.4654 4.10448C31.4373 3.95418 31.2488 3.86553 31.0843 3.9272C30.7273 3.64585 30.5709 3.18337 30.7273 2.74401ZM17.241 2.00018C17.2129 2.01174 17.1968 2.02716 17.1768 2.04258C16.7676 2.09268 16.3384 2.08112 16.0175 1.81133C15.5923 1.45676 15.7728 0.994279 16.21 0.766892C16.5791 0.57419 17.0885 0.520234 17.4536 0.739913C18.0553 1.10605 17.8146 1.76509 17.2369 2.00018H17.241ZM5.3391 9.65429C5.27492 9.98188 4.85773 10.2632 4.51275 10.1515C4.11161 10.0243 4.03138 9.53481 4.19585 9.21107C4.23997 9.12629 4.21189 9.03764 4.15573 8.97983C4.28009 8.89504 4.4245 8.84109 4.59298 8.84109C5.01016 8.84109 5.41933 9.24191 5.3391 9.65429ZM0.794172 25.0396C0.429134 24.4461 0.677841 23.6791 1.31566 23.3669C1.97754 23.047 2.67552 23.4402 3.05661 23.9643C3.07666 23.9951 3.10876 24.0144 3.13684 24.0298C3.13684 24.0298 3.13684 24.0337 3.13684 24.0375C3.44973 25.4288 1.61651 26.3731 0.794172 25.0357V25.0396ZM10.939 35.195C10.7866 35.6613 10.8869 36.2779 10.2892 36.4629C9.8399 36.6017 9.35051 36.3936 9.24621 35.9311C9.01756 34.9059 10.2852 34.5937 10.9711 35.1333C10.9591 35.1526 10.9471 35.168 10.939 35.1911V35.195ZM24.8947 39.3034C25.34 39.1145 25.8494 39.4922 25.8374 39.9431C25.8254 40.421 25.3039 40.7987 24.8386 40.8103C24.4454 40.8218 23.9721 40.5983 23.8357 40.2206C23.6552 39.7196 24.0965 39.2956 24.5858 39.2764C24.6701 39.3303 24.7784 39.3496 24.8907 39.2995L24.8947 39.3034ZM38.6298 33.1292C38.686 33.6533 38.1605 33.9771 37.6711 33.9694C37.1857 33.9617 36.6602 33.6572 36.7484 33.1408C36.8006 32.8209 37.0092 32.6089 37.2579 32.4316C37.1696 32.6667 37.4344 32.975 37.6911 32.7977C38.0441 32.5549 38.5776 32.6436 38.6298 33.1292ZM37.8315 15.2773C38.5415 15.7128 39.1713 16.0558 39.8854 16.1946C39.4321 16.58 39.0791 17.0463 38.8424 17.6437C38.6619 18.0946 38.6579 18.5918 38.4934 19.0427C38.0722 20.1912 37.0974 20.6421 36.0144 20.7732C34.819 20.4687 33.4671 20.5034 32.3239 20.7231C32.3559 20.4918 32.376 20.2529 32.388 20.0178C34.2614 20.2914 38.1444 20.5149 38.4372 18.1524C38.7582 15.5779 35.5811 15.0037 33.6356 15.5625C33.5233 15.5934 33.4671 15.6666 33.443 15.7437C32.8413 15.84 32.2396 16.0905 31.7422 16.4335C31.7101 16.3603 31.686 16.2832 31.654 16.21C31.7181 16.2177 31.7823 16.21 31.8465 16.1637C33.9244 14.7262 35.4167 13.8089 37.8275 15.285L37.8315 15.2773ZM36.7324 24.8661C36.5118 26.2767 34.6304 26.6544 33.2264 26.3808C32.1193 26.165 31.2408 25.6601 30.3944 24.9895C30.9439 24.3304 31.4012 23.602 31.7382 22.8235C33.3067 22.8042 37.0774 22.5769 36.592 24.712C36.5719 24.8006 36.6562 24.87 36.7364 24.8623L36.7324 24.8661ZM31.9588 16.9847C32.5686 16.5414 33.1903 16.2755 33.9405 16.0674C34.843 15.9094 35.8018 15.8053 36.6562 16.2177C37.5146 16.6339 38.0883 17.6899 37.5748 18.5532C37.0974 19.3549 35.6774 19.4667 34.823 19.5476C34.0127 19.6247 33.2104 19.6131 32.4001 19.5514C32.4001 19.2894 32.384 19.0234 32.3559 18.7575C32.2878 18.137 32.1474 17.5473 31.9588 16.9808V16.9847ZM31.4454 8.37475C32.3559 8.34392 33.1301 8.19746 33.8923 7.86216C33.7118 8.71005 33.7238 9.54252 33.9003 10.4405C34.141 11.6738 34.3857 12.726 33.7078 13.7897C33.6276 13.8398 33.5513 13.8899 33.4671 13.94C33.3548 14.0093 33.3468 14.1211 33.3989 14.1982C33.3789 14.2213 33.3548 14.2444 33.3347 14.2676C32.6367 14.6453 32.0029 15.154 31.4574 15.6627C31.4413 15.6781 31.4333 15.6936 31.4213 15.7128C31.2368 15.366 31.0322 15.0345 30.8075 14.7185C32.2196 13.8051 34.7949 10.8259 32.5886 9.64658C32.6528 9.54638 32.6448 9.41534 32.5004 9.35367C30.4826 8.49037 27.9835 10.0551 28.0076 12.1671C27.6987 11.9821 27.3818 11.8048 27.0489 11.6507C27.3738 9.32284 29.0826 8.46339 31.4494 8.3786L31.4454 8.37475ZM30.4706 14.283C29.8528 13.5276 29.1147 12.8724 28.2844 12.3367C28.2844 12.3328 28.2924 12.329 28.2924 12.3251C28.7537 10.4752 30.1136 9.55794 31.9949 9.74678C33.3949 10.2671 32.8293 11.8858 32.1995 12.6951C31.7101 13.3233 31.1084 13.8089 30.4626 14.2868L30.4706 14.283ZM20.8191 4.95237C21.6455 4.34729 22.4839 3.90022 23.1578 3.18337C23.6833 3.95418 24.4374 4.42051 25.2437 4.98706C27.6385 6.66741 27.3778 9.00681 26.0059 11.2267C25.8133 11.1612 25.6208 11.1034 25.4282 11.0494C26.2105 8.91817 25.9497 4.68259 22.5761 5.08726C19.8444 5.41485 19.5957 8.93744 20.5103 10.8722C20.2816 10.9146 20.053 10.9647 19.8243 11.0186C19.8123 10.9916 19.7962 10.9685 19.7762 10.9454C19.7401 10.9107 19.716 10.8606 19.6839 10.8182C19.5716 10.2863 19.4512 9.73908 19.2787 9.20722C19.2587 8.85265 19.2547 8.51735 19.2467 8.2784C19.1945 6.91407 19.6558 5.80796 20.8191 4.95622V4.95237ZM24.8025 10.8991C23.6753 10.664 22.4879 10.6024 21.2925 10.7488C21.1721 10.7642 21.0558 10.7835 20.9395 10.8028C20.5504 9.20722 20.2776 6.38992 22.4277 5.81182C23.6472 5.48423 24.7383 6.54408 25.0512 7.58082C25.3881 8.69463 25.0351 9.80074 24.8025 10.8953V10.8991ZM9.96827 10.1091C9.84391 8.74474 10.4416 7.34572 10.6703 5.97369C11.9499 6.4593 13.2255 6.37065 14.6295 6.467C16.9361 6.62502 17.9831 7.84289 18.5727 9.53867C18.6329 9.89324 18.7292 10.2324 18.8616 10.5253C18.9097 10.7257 18.9578 10.9261 18.998 11.1304C19.006 11.1689 19.022 11.1959 19.0381 11.2267C18.9137 11.2653 18.7934 11.3115 18.673 11.3501C17.8066 10.2131 17.5057 8.81796 16.1779 8.02018C15.0547 7.34572 13.4301 6.99115 12.2227 7.66561C9.06169 9.43846 12.4794 12.7105 14.5413 13.8513C14.3447 14.0479 14.1562 14.256 13.9837 14.468C13.2977 13.9901 12.5596 13.5045 11.7854 13.146C10.8387 12.3521 10.0886 11.4117 9.96426 10.1014L9.96827 10.1091ZM18.0111 11.6006C16.8518 12.0708 15.8009 12.7028 14.9264 13.4929C13.8954 12.8724 12.8164 12.1517 12.1866 11.1342C10.9471 9.13014 12.7402 7.54228 14.8381 8.17434C16.0977 8.55589 16.7837 9.36909 17.3252 10.4752C17.5338 10.8991 17.7183 11.2807 18.0111 11.6006ZM5.76832 19.6979C4.94598 18.5879 4.49269 17.3277 3.6182 16.2755C4.51275 16.0404 5.23881 15.5625 6.01302 14.9767C6.78722 14.3909 7.6256 13.5584 8.62846 13.3773C9.8399 13.1615 10.939 13.5045 11.9499 14.044C12.1986 14.202 12.4553 14.3485 12.7121 14.4911C13.0009 14.6761 13.2857 14.8688 13.5585 15.0615C13.4301 15.2503 13.3138 15.4469 13.2055 15.6512C10.9791 14.6877 6.90756 13.6509 6.22963 16.9191C5.63996 19.7519 10.2611 21.1239 12.5075 20.8772C12.5396 21.0352 12.5757 21.1894 12.6158 21.3397C10.1568 21.6365 7.40498 21.9178 5.76832 19.7095V19.6979ZM12.4192 20.3801C12.4192 20.3993 12.4273 20.4186 12.4313 20.4379C10.6342 20.4417 6.77117 19.4589 6.83536 17.3007C6.8875 15.5702 8.99751 15.0808 10.4175 15.3159C11.3001 15.4623 12.1264 15.8323 12.9327 16.2023C12.3992 17.4279 12.1906 18.8307 12.4232 20.3801H12.4192ZM12.4232 29.9959C10.6462 30.4391 8.58433 29.7993 6.79123 29.3522C7.40096 28.7086 7.81013 27.9956 8.03076 27.1053C8.59235 24.8584 8.7488 23.2205 10.9952 22.1452C11.5889 22.0681 12.1826 21.9448 12.7562 21.7983C12.8124 21.9679 12.8806 22.1336 12.9487 22.2955C11.0152 23.0548 7.99064 25.7988 9.50294 27.9879C11.1958 30.4391 14.8662 27.8916 16.2943 26.3191C16.3865 26.3808 16.4748 26.4463 16.571 26.5041C15.492 27.9147 14.2886 29.5218 12.4232 29.9882V29.9959ZM13.1012 22.6655C13.7069 23.9797 14.6335 25.0781 15.7648 25.9491C14.4651 27.3096 11.4204 29.622 10.1528 27.4561C9.05367 25.5753 11.5568 23.5905 13.1012 22.6655ZM23.3102 28.3001C22.548 30.4699 23.7354 33.0675 21.8701 34.8442C20.5544 36.0968 18.7212 36.6325 17.257 37.7001C17.249 36.5169 16.9882 35.4185 16.4266 34.3085C15.3556 32.1927 15.4077 30.2425 16.1779 28.1845C16.539 27.7528 16.8759 27.3058 17.1928 26.8702C17.4134 26.9859 17.6381 27.0976 17.8667 27.1978C17.1647 29.2405 15.861 33.2641 18.9017 34.189C22.1509 35.1795 22.5641 30.2541 22.3836 28.3695C22.3756 28.3001 22.3475 28.25 22.3114 28.2076C22.6604 28.2192 23.0134 28.223 23.3664 28.2076C23.3463 28.2346 23.3263 28.2615 23.3142 28.2962L23.3102 28.3001ZM21.6294 31.3563C21.5211 31.8535 21.3687 32.4278 21.0558 32.8479C20.434 33.6842 19.0381 33.927 18.2558 33.1523C16.7435 31.6531 17.8788 29.1634 18.2759 27.3713C19.3991 27.8222 20.6105 28.0997 21.8501 28.1922C21.8099 28.2384 21.7819 28.2962 21.7859 28.3772C21.838 29.3792 21.838 30.3697 21.6254 31.3563H21.6294ZM13.39 21.3513C11.8737 16.1869 15.9493 12.2712 21.0317 11.5119C22.7607 11.2537 24.4816 11.4349 26.0219 11.9937C26.05 12.0052 26.0741 12.0168 26.1062 12.0207C26.2385 12.0708 26.3709 12.1247 26.4993 12.1787C26.5354 12.2057 26.5755 12.2249 26.6236 12.2288C28.6815 13.1383 30.3462 14.757 31.1605 16.9384C31.0643 17.0926 31.1485 17.2583 31.2889 17.32C31.3611 17.5512 31.4293 17.7824 31.4815 18.0252C32.4963 22.5422 28.9824 26.8895 24.4334 27.7413C24.3973 27.6488 24.3131 27.5832 24.1727 27.5909C19.6197 27.8916 14.7178 25.8721 13.39 21.3474V21.3513ZM27.8391 27.167C28.4408 27.9571 29.215 28.6161 29.7646 29.4447C30.5508 30.6318 31.0081 33.1523 28.7336 33.2525C26.1784 33.3643 24.7704 30.3427 25.0592 28.3155C26.046 28.0688 26.9847 27.6796 27.8391 27.167ZM32.015 32.131C31.658 33.241 31.3009 34.1505 31.4574 35.2181C30.1336 34.771 28.9382 34.7517 27.462 34.7132C24.1005 34.6246 23.8678 31.4835 23.8919 28.9591C23.928 28.8127 23.9641 28.6662 24.0162 28.5198C24.2208 28.4928 24.4214 28.4581 24.6219 28.4157C24.1005 30.917 26.1503 34.4087 29.1829 33.8807C30.4425 33.661 31.1806 32.4779 31.1605 31.3062C31.1285 29.518 29.5921 28.0303 28.3766 26.8201C28.4809 26.7469 28.5892 26.6775 28.6935 26.6005C28.7216 26.6274 28.7537 26.6544 28.7938 26.6737C31.3932 27.8415 32.9617 29.175 32.015 32.131ZM38.1885 24.9548C38.3009 25.6909 38.5496 26.3191 39.051 26.7585C38.3009 27.036 37.7513 27.4676 37.0453 27.9995C35.7175 28.9977 33.9966 28.724 32.5565 28.038C32.5244 27.9224 32.384 27.8299 32.2597 27.8916C32.1754 27.8453 32.0912 27.7991 32.007 27.7528C31.2488 27.0437 30.2419 26.5504 29.2912 26.1226C29.552 25.8952 29.8007 25.6485 30.0333 25.398C31.313 26.6737 33.3588 27.4676 35.184 27.0745C36.6562 26.7585 37.9479 25.3633 37.1696 23.9103C37.1376 23.8525 37.0934 23.8217 37.0493 23.8024C36.7845 22.3533 33.5032 22.1645 31.9628 22.23C32.0551 21.9602 32.1393 21.6827 32.2035 21.4014C33.4471 21.2626 34.6786 21.1701 35.9101 21.5131C37.8395 22.0527 37.9358 23.2899 38.1885 24.9548ZM43.4515 22.6655C43.0464 22.6771 42.585 22.3957 42.5008 21.9988C42.4085 21.5748 42.7495 21.1971 43.1587 21.1085C43.1868 21.1085 43.2188 21.1085 43.2509 21.1008C43.271 21.0969 43.287 21.0931 43.3071 21.0892C43.3552 21.0892 43.4074 21.0892 43.4595 21.0931C43.5357 21.1046 43.5959 21.0815 43.6441 21.0429C43.961 21.0429 44.2498 21.1624 44.3541 21.5286C44.5065 22.0758 44.0412 22.6501 43.4555 22.6655H43.4515Z" fill="#793A4A"/>
    <path d="M23.9962 25.4404C23.8398 25.4789 23.7074 25.5714 23.6071 25.687C23.3464 25.9029 23.23 26.2806 23.4547 26.6043C23.8037 27.1169 24.6741 27.0668 24.8747 26.4579C25.0512 25.9299 24.6099 25.2901 23.9962 25.4365V25.4404Z" fill="#793A4A"/>
    <path d="M20.9436 25.3792C20.5344 25.1596 20.0209 25.3214 19.7682 25.6798C19.7 25.7762 19.708 25.9149 19.7682 26.0074C19.8164 26.0845 19.8685 26.1539 19.9287 26.2194C19.9608 26.3697 20.037 26.5162 20.1453 26.6125C20.4742 26.917 20.9917 26.7898 21.2123 26.4314C21.433 26.0691 21.3447 25.5874 20.9476 25.3792H20.9436Z" fill="#793A4A"/>
    <path d="M18.2842 24.2998C18.228 24.0454 18.0194 23.8489 17.7787 23.7525C17.514 23.6484 17.1289 23.66 16.9604 23.9144C16.9123 23.9876 16.8842 24.0685 16.8722 24.1533C16.8722 24.161 16.8641 24.1649 16.8641 24.1726C16.8641 24.1842 16.8641 24.1996 16.8641 24.2111C16.7037 24.5503 16.8401 25.0012 17.2252 25.1554C17.7747 25.375 18.4165 24.8625 18.2922 24.3036L18.2842 24.2998Z" fill="#793A4A"/>
    <path d="M15.2634 20.962C15.1632 20.9543 15.0629 20.9697 14.9706 21.0006C14.9185 20.9235 14.8222 20.8772 14.7219 20.9466C14.3609 21.1855 14.2566 21.6634 14.5053 22.018C14.8021 22.4458 15.4279 22.3649 15.7207 21.9795C16.0216 21.5825 15.801 21.0006 15.2675 20.962H15.2634Z" fill="#793A4A"/>
    <path d="M15.9373 17.0498C15.833 16.9805 15.6966 16.9188 15.5522 16.8803C15.5281 16.861 15.496 16.8494 15.4639 16.8456C15.4398 16.8456 15.4198 16.8456 15.3997 16.8456C15.2433 16.8224 15.0828 16.8263 14.9505 16.8803C14.6937 16.9843 14.6576 17.2965 14.7258 17.5432C14.7258 17.6511 14.7379 17.759 14.786 17.8553C15.0507 18.3872 15.849 18.2985 16.1459 17.8476C16.2181 17.7397 16.2662 17.601 16.2622 17.4699C16.2542 17.2849 16.0857 17.15 15.9373 17.0537V17.0498Z" fill="#793A4A"/>
    <path d="M18.3842 13.5201C18.2518 13.4469 18.1034 13.4739 17.9951 13.5587C17.6942 13.5587 17.4134 13.7707 17.3332 14.0559C17.2289 14.4181 17.4896 14.7689 17.8547 14.8652C18.2197 14.9616 18.6088 14.7881 18.7372 14.4374C18.8615 14.0944 18.7131 13.7013 18.3882 13.5201H18.3842Z" fill="#793A4A"/>
    <path d="M22.2795 12.7493C21.9947 12.8341 21.7941 13.0961 21.8503 13.3852C21.8743 13.5124 21.9506 13.6242 22.0508 13.6974C22.2795 14.1059 22.9614 13.9941 23.174 13.601C23.4669 13.0576 22.797 12.5951 22.2795 12.7493Z" fill="#793A4A"/>
    <path d="M27.4184 13.8475C27.2098 13.728 26.9531 13.7088 26.7485 13.8244C26.4717 13.9092 26.2431 14.1558 26.235 14.4526C26.215 14.9844 26.8247 15.1463 27.2579 14.969C27.4786 14.8804 27.6551 14.7147 27.7393 14.495C27.8516 14.2021 27.6832 13.994 27.4224 13.8475H27.4184Z" fill="#793A4A"/>
    <path d="M29.7887 17.0073C29.7647 16.9996 29.7406 16.9919 29.7125 16.9919C29.2231 16.9803 28.9223 17.5661 29.183 17.9477C29.4478 18.3331 30.0976 18.3369 30.3142 17.9053C30.5028 17.5276 30.222 17.0227 29.7887 17.0073Z" fill="#793A4A"/>
    <path d="M29.9735 20.4992C29.6285 20.584 29.3116 20.9116 29.4159 21.2738C29.4721 21.4704 29.6406 21.5205 29.789 21.4742C29.793 21.4781 29.797 21.4858 29.805 21.4897C30.154 21.7787 30.7598 21.3162 30.8039 20.9578C30.848 20.5608 30.2864 20.4221 29.9775 20.4992H29.9735Z" fill="#793A4A"/>
    <path d="M29.1068 23.1241C28.7096 23.0124 28.1681 23.2744 28.2243 23.7215C28.2283 23.76 28.2403 23.7947 28.2523 23.8256C28.2563 23.8757 28.2684 23.9258 28.2844 23.972C28.4409 24.4152 29.0305 24.4615 29.3434 24.1454C29.6643 23.8217 29.5921 23.259 29.1068 23.1241Z" fill="#793A4A"/>
  </g>
  <defs>
    <clipPath id="clip0_72_939">
      <rect width="45" height="41.4" fill="white"/>
    </clipPath>
  </defs>
</svg>
