<svg xmlns="http://www.w3.org/2000/svg" width="365" height="348" viewBox="0 0 365 348" fill="none">
  <path d="M0.581543 178.888C2.55542 172.902 10.7098 169.245 15.9196 173.484C19.5114 174.034 22.7473 176.655 24.2034 180.086C36.8557 179.05 49.7668 178.047 62.4837 178.435C62.5485 178.403 62.6132 178.338 62.6779 178.306C58.6978 177.464 54.9765 175.782 52.0319 172.611C41.2241 160.929 47.534 145.009 30.6751 135.916C27.4716 134.201 29.8662 130.059 32.9726 130.512C50.3816 132.971 60.8982 113.685 78.2748 114.689C79.5044 114.753 80.7017 114.947 81.899 115.174C71.5442 109.511 61.6424 102.263 53.1321 94.432C52.3555 94.432 51.6436 94.0761 51.2876 93.4289C47.5016 96.6 41.7095 97.2472 37.341 94.6262C31.1929 90.9373 29.2514 82.3299 33.6845 76.6024C37.9235 71.1661 45.9485 69.9688 51.2553 74.5638C55.5914 78.3174 57.5005 85.2098 56.2709 90.9049C64.6841 97.765 73.2268 103.945 82.0931 109.899C80.993 105.402 81.1547 100.871 81.7695 96.2441C83.4845 83.3006 86.3968 73.7224 82.0284 60.779C81.1871 58.3197 84.2935 55.9899 86.4292 57.3813C100.894 66.733 118.626 61.8468 133.349 69.2893C125.842 59.614 118.561 49.6152 111.863 39.4222C104.841 40.1341 96.2986 36.5423 92.9333 30.3618C88.9532 23.0811 95.8132 15.1855 102.706 13.4058C109.339 11.6908 117.299 14.3766 119.435 21.3661C120.988 26.3493 119.37 32.4651 114.937 35.2479C115.358 35.6686 115.584 36.2834 115.617 36.8659C123.642 47.6737 131.246 59.0963 138.268 70.5513C137.847 65.471 138.333 60.2936 140.242 55.1485C146.39 38.6456 165.999 35.345 173.151 19.9423C174.186 17.7419 177.163 18.2596 178.328 19.9423C188.036 34.0507 206.189 37.6101 211.916 54.2749C212.661 42.6904 214.99 30.8472 218.356 20.007C218.453 19.7158 218.582 19.5216 218.744 19.2951C214.699 16.1887 212.984 10.6877 215.702 5.80151C219.229 -0.540796 227.804 -1.25269 233.855 1.59488C239.324 4.15122 242.754 10.1376 239.486 15.8327C236.218 21.4955 229.875 22.0779 224.18 20.6865C223.857 20.9454 223.501 21.1719 223.08 21.2366C223.08 21.2366 223.08 21.269 223.08 21.3013C219.812 34.536 217.579 47.5766 215.573 60.9731C217.353 58.7404 219.391 56.7018 221.818 54.9544C238.386 43.1111 260.357 52.398 277.928 43.2082C280.031 42.108 282.232 43.4994 282.426 45.7969C283.72 62.2027 292.587 79.1263 286.374 95.4998C284.95 99.2858 282.879 102.683 280.387 105.758C286.697 103.719 292.878 101.616 298.832 98.4445C305.498 94.9174 311.16 90.2577 317.244 85.9217C316.661 85.1774 316.111 84.3685 315.755 83.4624C313.49 77.6702 317.665 71.1661 323.457 69.71C329.573 68.1567 336.4 72.7193 337.274 78.9645C337.597 81.1973 335.365 82.3946 333.876 81.4562C333.714 84.2714 332.291 87.0542 329.864 88.6398C327.081 90.4195 323.78 90.2577 320.997 88.8987C314.17 96.3088 304.43 102.457 294.237 106.502C295.143 106.696 296.049 106.89 296.955 107.181C313.037 112.359 322.033 129.832 339.539 131.774C341.998 132.033 343.649 134.913 341.642 136.887C328.472 149.992 325.528 170.896 308.734 180.636C303.394 183.742 297.699 185.457 291.842 186.201C305.757 190.343 319.509 195.326 333.229 200.018C333.812 199.048 334.815 198.692 335.753 198.854C338.536 192.026 347.176 188.822 353.971 191.605C361.608 194.712 365.102 203.869 361.769 211.312C358.469 218.722 349.635 223.22 341.934 219.887C335.624 217.136 331.385 210.017 332.291 203.222C318.247 199.112 304.042 195.262 290.16 190.602C292.134 192.382 293.978 194.42 295.596 196.75C306.598 212.671 300.417 231.795 316.111 246.033C317.729 247.489 316.92 250.498 314.817 250.983C296.502 255.222 275.275 263.215 256.668 256.161C253.562 254.996 250.714 253.443 248.029 251.598C254.694 261.241 261.037 271.143 267.509 280.883C269.321 283.601 272.977 287.549 273.948 291.238C277.151 288.358 281.649 287.193 285.985 288.714C291.713 290.72 294.755 297.321 293.363 303.081C291.939 309.035 286.18 312.433 280.226 311.462C273.107 310.297 270.388 303.858 270.13 297.321C268.771 296.868 267.67 295.153 268.673 293.826C270.68 291.141 256.377 272.761 254.468 269.751C249.938 262.633 245.408 255.514 241.104 248.298C243.24 254.931 244.404 261.856 243.66 269.137C242.981 275.706 240.618 281.109 237.836 286.966C231.946 299.327 228.905 309.456 230.037 323.305C230.264 325.959 226.672 327.156 224.924 325.408C211.496 312.012 190.527 308.064 178.781 292.823C176.451 289.814 174.898 286.643 173.83 283.407C171.694 296.9 169.073 310.426 166.096 323.726C165.773 325.182 164.543 325.603 163.443 325.279C163.864 325.441 164.284 325.538 164.673 325.764C164.867 325.861 164.964 326.023 165.126 326.12C171.015 325.441 176.386 331.395 175.642 337.316C174.801 344.112 167.488 348.351 161.048 347.477C154.382 346.571 148.299 339.97 149.755 333.013C151.017 326.962 157.618 323.24 163.314 325.247C162.246 324.891 161.372 323.888 161.631 322.496C164.414 307.449 167.779 292.306 171.662 277.485C170.303 280.753 168.491 283.892 166.064 286.772C151.535 304.052 125.551 294.376 106.621 302.984C104.453 303.955 101.411 302.304 102.285 299.651C108.142 281.66 91.8978 265.771 96.0397 248.039C93.4187 250.11 90.7329 251.987 88.8885 253.54C81.9313 259.364 74.683 265.577 66.8522 270.172C69.8292 272.728 71.7707 276.676 71.5442 280.43C71.0588 287.872 62.2249 291.464 55.7531 290.04C49.0549 288.584 44.2982 281.498 46.9516 274.799C48.8284 270.043 54.75 267.745 59.2802 269.622C58.989 268.619 59.5391 267.357 60.8011 267.454C61.6101 267.519 62.3867 267.713 63.1309 267.972C63.1956 267.551 63.3898 267.163 63.8105 266.807C66.1726 264.865 84.9083 251.76 94.713 243.379C89.568 245.58 84.2612 247.1 79.3103 247.392C63.1956 248.362 55.2678 231.568 39.9944 228.526C36.8557 227.912 37.4705 223.705 39.9944 222.767C54.1999 217.557 46.7574 193.061 57.5005 182.124C46.628 182.965 35.7878 183.58 24.9153 184.778C24.2357 191.12 17.764 195.747 11.5188 195.197C3.72034 194.485 -1.87772 186.331 0.581543 178.856V178.888ZM49.9609 81.2297C47.9223 77.2819 43.5215 75.5022 39.5414 77.9938C35.0112 80.809 35.2377 87.1837 39.2178 90.4195C43.1009 93.5583 47.9547 92.0051 51.32 89.0605C51.4818 86.3747 51.2553 83.7536 49.9609 81.262V81.2297ZM115.131 23.0163C113.546 18.4214 108.336 16.9329 103.968 18.0978C98.5313 19.5216 94.1306 25.4432 98.9196 30.1676C101.864 33.0799 105.424 34.083 109.177 34.439C109.404 33.177 110.925 32.4327 112.251 32.9505C115.131 30.5883 116.393 26.7052 115.131 23.0163ZM223.921 16.7711C224.148 16.8682 224.277 16.9976 224.439 17.1271C227.74 17.5477 231.202 17.4506 233.791 15.1855C237.221 12.2085 235.765 8.32549 232.238 6.41633C229.261 4.79839 225.151 4.34537 222.206 6.18982C217.353 9.26389 219.294 14.7972 223.954 16.7711H223.921ZM319.93 81.0355C320.447 83.786 323.813 86.1482 326.596 85.2098C329.831 84.1419 330.479 80.0324 329.152 77.3143C328.796 76.6024 329.022 75.8581 329.475 75.3727C328.472 74.6608 327.307 74.2078 325.948 74.2078C322.583 74.2078 319.282 77.5731 319.93 81.0355ZM356.592 210.211C359.537 205.228 357.53 198.789 352.385 196.168C347.046 193.482 341.416 196.783 338.342 201.183C338.18 201.442 337.921 201.604 337.695 201.733C337.695 201.733 337.695 201.766 337.695 201.798C335.171 213.48 349.959 221.408 356.592 210.179V210.211ZM274.757 295.477C275.987 299.392 275.178 304.569 279.999 306.123C283.623 307.288 287.571 305.54 288.412 301.657C290.257 293.05 280.031 290.429 274.498 294.959C274.595 295.121 274.692 295.25 274.757 295.444V295.477ZM162.181 329.971C158.589 328.385 154.48 331.557 154.577 335.343C154.674 339.355 158.88 342.526 162.634 342.623C165.805 342.72 169.623 340.844 170.724 337.672C172.18 333.466 168.62 329.906 164.673 329.745C163.993 330.198 163.119 330.359 162.213 329.939L162.181 329.971ZM51.3847 278.132C50.9317 282.533 55.1707 285.251 59.1184 285.187C63.0338 285.122 67.2728 282.566 66.5609 278.229C66.1403 275.544 64.4576 273.764 62.4514 272.275C63.1633 274.249 61.0276 276.838 58.9567 275.35C56.1091 273.311 51.8054 274.055 51.3847 278.132ZM57.8241 128.247C52.0966 131.903 47.0163 134.783 41.2564 135.948C44.913 139.184 47.7605 143.1 49.6697 148.115C51.1258 151.901 51.1582 156.075 52.4849 159.861C55.8826 169.504 63.7458 173.29 72.4826 174.39C82.1255 171.834 93.0304 172.125 102.253 173.97C101.994 172.028 101.832 170.022 101.735 168.048C86.6234 170.346 55.3001 172.222 52.9379 152.386C50.3492 130.771 75.9773 125.949 91.6713 130.641C92.5774 130.9 93.0304 131.515 93.2245 132.162C98.0783 132.971 102.932 135.075 106.945 137.954C107.203 137.34 107.398 136.692 107.656 136.078C107.139 136.142 106.621 136.078 106.103 135.689C89.3415 123.62 77.304 115.918 57.8564 128.312L57.8241 128.247ZM66.6904 208.755C68.4701 220.599 83.6463 223.77 94.9719 221.472C103.903 219.66 110.989 215.421 117.817 209.791C113.384 204.257 109.695 198.142 106.977 191.605C94.3247 191.443 63.9075 189.534 67.8229 207.461C67.9847 208.205 67.3052 208.788 66.658 208.723L66.6904 208.755ZM105.197 142.582C100.279 138.861 95.2631 136.628 89.212 134.88C81.9313 133.554 74.1976 132.68 67.3052 136.142C60.3804 139.637 55.7531 148.503 59.8951 155.752C63.7458 162.482 75.2007 163.421 82.0931 164.1C88.6296 164.747 95.1013 164.65 101.638 164.133C101.638 161.932 101.767 159.7 101.994 157.467C102.544 152.257 103.676 147.306 105.197 142.549V142.582ZM109.339 70.2924C101.994 70.0335 95.7485 68.8039 89.6003 65.9887C91.0565 73.1076 90.9594 80.0971 89.5356 87.6367C87.5941 97.9915 85.6202 106.825 91.0889 115.756C91.736 116.177 92.3508 116.598 93.0304 117.018C93.9364 117.601 94.0011 118.539 93.5805 119.186C93.7422 119.381 93.9364 119.575 94.0982 119.769C99.7286 122.94 104.841 127.211 109.242 131.483C109.372 131.612 109.436 131.742 109.533 131.903C111.022 128.991 112.672 126.208 114.484 123.555C103.094 115.886 82.3196 90.8726 100.117 80.9708C99.5992 80.1295 99.6639 79.0293 100.829 78.5115C117.105 71.2632 137.265 84.4008 137.071 102.133C139.562 100.58 142.119 99.0917 144.804 97.7973C142.183 78.2527 128.398 71.0367 109.307 70.3248L109.339 70.2924ZM117.202 119.898C122.186 113.556 128.14 108.055 134.838 103.557C134.838 103.525 134.773 103.492 134.773 103.46C131.052 87.9279 120.082 80.2265 104.906 81.8121C93.6128 86.1805 98.1754 99.7712 103.256 106.567C107.203 111.841 112.057 115.918 117.267 119.931L117.202 119.898ZM195.057 41.5579C188.391 36.4776 181.629 32.724 176.192 26.7052C171.953 33.177 165.87 37.0924 159.366 41.8491C140.048 55.9575 142.151 75.5992 153.218 94.2379C154.771 93.6878 156.324 93.2024 157.877 92.7494C151.567 74.855 153.671 39.2928 180.884 42.6904C202.921 45.4409 204.927 75.0168 197.549 91.2609C199.393 91.6168 201.238 92.0375 203.082 92.4905C203.179 92.264 203.309 92.0698 203.471 91.8757C203.762 91.5844 203.956 91.1638 204.215 90.8078C205.121 86.3423 206.092 81.7474 207.483 77.2819C207.645 74.3049 207.677 71.4897 207.742 69.4834C208.163 58.0285 204.441 48.7415 195.057 41.5902V41.5579ZM162.925 91.4874C172.018 89.5135 181.596 88.9957 191.239 90.2254C192.21 90.3548 193.148 90.5166 194.087 90.6784C197.225 77.2819 199.426 53.6277 182.082 48.7739C172.245 46.0234 163.443 54.922 160.919 63.6265C158.201 72.9782 161.048 82.2651 162.925 91.455V91.4874ZM282.588 84.8538C283.591 73.3988 278.769 61.6526 276.925 50.1329C266.602 54.2101 256.312 53.4659 244.987 54.2749C226.381 55.6016 217.935 65.8269 213.178 80.0647C212.693 83.0417 211.916 85.8893 210.848 88.3486C210.46 90.0312 210.072 91.7139 209.748 93.4289C209.684 93.7525 209.554 93.979 209.425 94.2379C210.428 94.5614 211.399 94.9498 212.369 95.2733C219.359 85.7275 221.786 74.0137 232.496 67.3154C241.557 61.6526 254.662 58.6756 264.402 64.3384C289.901 79.2234 262.331 106.696 245.699 116.274C247.284 117.924 248.805 119.672 250.197 121.452C255.73 117.439 261.684 113.362 267.929 110.353C275.566 103.687 281.617 95.7911 282.62 84.7891L282.588 84.8538ZM217.708 97.3767C227.06 101.324 235.538 106.631 242.592 113.265C250.909 108.055 259.613 102.004 264.693 93.4613C274.692 76.6347 260.228 63.3029 243.304 68.6098C233.144 71.8133 227.61 78.641 223.242 87.9279C221.559 91.4874 220.071 94.6909 217.708 97.3767ZM316.467 165.362C323.101 156.043 326.757 145.462 333.812 136.628C326.596 134.654 320.739 130.641 314.493 125.723C308.248 120.804 301.485 113.815 293.396 112.294C283.623 110.482 274.757 113.362 266.602 117.892C264.596 119.219 262.525 120.448 260.454 121.646C258.125 123.199 255.827 124.817 253.627 126.435C254.662 128.02 255.601 129.671 256.474 131.386C274.433 123.296 307.277 114.591 312.746 142.032C317.503 165.815 280.226 177.335 262.105 175.264C261.846 176.591 261.555 177.885 261.231 179.147C281.067 181.639 303.265 184.001 316.467 165.459V165.362ZM262.817 171.09C262.817 171.252 262.752 171.413 262.719 171.575C277.216 171.608 308.378 163.356 307.86 145.235C307.439 130.706 290.419 126.597 278.964 128.57C271.845 129.8 265.179 132.907 258.675 136.013C262.978 146.303 264.661 158.082 262.784 171.09H262.817ZM262.784 251.825C277.119 255.546 293.751 250.174 308.216 246.421C303.297 241.017 299.997 235.031 298.217 227.556C293.687 208.691 292.425 194.938 274.304 185.91C269.515 185.263 264.726 184.227 260.098 182.998C259.645 184.422 259.095 185.813 258.545 187.172C274.142 193.547 298.541 216.586 286.341 234.966C272.686 255.546 243.078 234.157 231.558 220.955C230.814 221.472 230.102 222.022 229.325 222.508C238.03 234.351 247.737 247.845 262.784 251.76V251.825ZM257.316 190.279C252.429 201.313 244.955 210.535 235.829 217.848C246.314 229.271 270.874 248.686 281.099 230.5C289.965 214.709 269.774 198.045 257.316 190.279ZM174.963 237.587C181.111 255.805 171.533 277.615 186.579 292.532C197.193 303.049 211.981 307.546 223.792 316.51C223.857 306.576 225.96 297.353 230.49 288.034C239.13 270.269 238.709 253.896 232.496 236.616C229.584 232.992 226.866 229.238 224.31 225.582C222.53 226.553 220.718 227.491 218.873 228.332C224.536 245.482 235.053 279.265 210.525 287.031C184.314 295.347 180.981 253.993 182.438 238.169C182.502 237.587 182.729 237.166 183.02 236.81C180.205 236.907 177.357 236.94 174.51 236.81C174.671 237.037 174.833 237.263 174.93 237.555L174.963 237.587ZM188.521 263.247C189.395 267.422 190.624 272.243 193.148 275.77C198.164 282.792 209.425 284.831 215.735 278.327C227.934 265.739 218.776 244.835 215.573 229.788C206.512 233.574 196.74 235.904 186.741 236.681C187.065 237.069 187.291 237.555 187.259 238.234C186.838 246.647 186.838 254.964 188.553 263.247H188.521ZM254.986 179.244C267.217 135.884 234.341 103.007 193.342 96.6324C179.396 94.4644 165.514 95.9852 153.088 100.677C152.862 100.774 152.667 100.871 152.409 100.904C151.341 101.324 150.273 101.777 149.237 102.23C148.946 102.457 148.623 102.619 148.234 102.651C131.634 110.288 118.205 123.878 111.637 142.193C112.413 143.488 111.734 144.879 110.601 145.397C110.019 147.339 109.469 149.28 109.048 151.319C100.861 189.243 129.207 225.744 165.902 232.895C166.193 232.118 166.873 231.568 168.006 231.633C204.733 234.157 244.275 217.201 254.986 179.212V179.244ZM138.43 228.073C133.576 234.707 127.331 240.24 122.897 247.197C116.555 257.164 112.866 278.327 131.214 279.168C151.826 280.106 163.184 254.737 160.854 237.716C152.894 235.645 145.322 232.377 138.43 228.073ZM104.744 269.751C107.624 279.071 110.504 286.707 109.242 295.671C119.92 291.917 129.563 291.755 141.471 291.432C168.588 290.688 170.465 264.315 170.271 243.12C169.979 241.891 169.688 240.661 169.268 239.431C167.617 239.205 165.999 238.914 164.381 238.558C168.588 259.559 152.053 288.875 127.589 284.442C117.429 282.598 111.475 272.664 111.637 262.827C111.895 247.812 124.289 235.322 134.094 225.161C133.252 224.546 132.379 223.964 131.537 223.317C131.311 223.543 131.052 223.77 130.728 223.932C109.76 233.736 97.1076 244.932 104.744 269.751ZM54.9442 209.5C54.0381 215.68 52.0319 220.955 47.9871 224.643C54.0381 226.973 58.4713 230.597 64.1664 235.063C74.8771 243.444 88.759 241.146 100.376 235.387C100.635 234.416 101.767 233.639 102.77 234.157C103.45 233.769 104.129 233.38 104.809 232.992C110.925 227.038 119.047 222.896 126.716 219.304C124.612 217.395 122.606 215.324 120.729 213.221C110.407 223.932 93.9041 230.597 79.1808 227.297C67.3052 224.643 56.8857 212.93 63.1633 200.73C63.4221 200.245 63.7781 199.986 64.134 199.824C66.2697 187.657 92.7391 186.072 105.165 186.622C104.421 184.357 103.741 182.027 103.223 179.665C93.1922 178.5 83.2581 177.723 73.3239 180.603C57.7594 185.133 56.9828 195.521 54.9442 209.5ZM12.4895 190.279C15.7578 190.376 19.479 188.013 20.1586 184.68C20.9028 181.121 18.1523 177.95 14.8517 177.206C14.6252 177.206 14.3664 177.206 14.1075 177.141C13.9457 177.109 13.8163 177.076 13.6544 177.044C13.2661 177.044 12.8455 177.044 12.4248 177.076C11.81 177.173 11.3246 176.655 10.9363 176.655C8.37997 176.655 6.05017 177.659 5.20883 180.733C3.97922 185.328 7.73282 190.149 12.4572 190.279H12.4895Z" fill="#793A4A"/>
</svg>
