<svg preserveAspectRatio="none" width="100%" height="100%" overflow="visible" style="display: block;" viewBox="0 0 33 30" fill="none" xmlns="http://www.w3.org/2000/svg">
<g id="OBJECTS" clip-path="url(#clip0_0_4)">
<path id="Vector" d="M16.9797 10.7494C14.7322 10.5958 12.6789 12.2407 12.7289 14.4414C12.776 16.5528 14.7322 18.1502 16.8943 17.9212C18.9065 18.1055 20.8068 16.7734 20.9686 14.757C21.1451 12.5842 19.1653 10.8974 16.9826 10.7494H16.9797ZM16.5266 17.3906C16.4237 17.3794 16.3531 17.4297 16.3148 17.5023C14.6292 17.1839 13.1878 16.0668 13.2672 14.2403C13.3525 12.2966 15.2176 11.0789 17.1414 11.2968C18.7917 11.4839 20.3508 12.6596 20.4332 14.3297C20.5391 16.4662 18.5505 17.6168 16.5266 17.3878V17.3906Z" fill="var(--fill-0, #793A4A)"/>
<path id="Vector_2" d="M32.947 15.4412C32.7675 14.9246 32.0262 14.609 31.5526 14.9749C31.2261 15.0223 30.9319 15.2485 30.7995 15.5446C29.6493 15.4552 28.4756 15.3686 27.3195 15.4021C27.3136 15.3994 27.3077 15.3938 27.3019 15.391C27.6637 15.3184 28.002 15.1731 28.2697 14.8994C29.2522 13.8913 28.6786 12.5172 30.2112 11.7324C30.5024 11.5844 30.2847 11.2269 30.0023 11.266C28.4197 11.4783 27.4636 9.8138 25.884 9.90038C25.7722 9.90597 25.6633 9.92272 25.5545 9.94227C26.4958 9.45354 27.396 8.82795 28.1697 8.1521C28.2403 8.1521 28.305 8.12138 28.3373 8.06553C28.6815 8.33922 29.2081 8.39507 29.6052 8.16886C30.1641 7.85048 30.3406 7.1076 29.9376 6.61328C29.5523 6.1441 28.8227 6.04076 28.3403 6.43734C27.9461 6.7613 27.7725 7.35616 27.8843 7.84769C27.1195 8.43976 26.3429 8.97318 25.5368 9.48705C25.6369 9.09885 25.6221 8.70786 25.5663 8.3085C25.4103 7.19139 25.1456 6.36473 25.5427 5.24761C25.6192 5.03536 25.3368 4.83428 25.1426 4.95437C23.8277 5.76149 22.2157 5.33978 20.8772 5.98211C21.5597 5.14707 22.2215 4.28411 22.8305 3.40438C23.4688 3.46582 24.2454 3.15583 24.5514 2.62241C24.9132 1.99403 24.2896 1.31259 23.663 1.15899C23.0599 1.01097 22.3363 1.24277 22.1421 1.84601C22.0009 2.2761 22.148 2.80394 22.551 3.04411C22.5128 3.08042 22.4922 3.13348 22.4892 3.18375C21.7597 4.11654 21.0684 5.10239 20.43 6.09103C20.4683 5.65257 20.4242 5.20572 20.2506 4.76167C19.6917 3.33736 17.909 3.05249 17.2589 1.72313C17.1648 1.53322 16.8941 1.57791 16.7882 1.72313C15.9057 2.94078 14.2554 3.24799 13.7347 4.68627C13.6671 3.68645 13.4553 2.6643 13.1493 1.72872C13.1405 1.70358 13.1287 1.68683 13.114 1.66728C13.4817 1.39917 13.6377 0.924397 13.3906 0.502688C13.0699 -0.0446962 12.2904 -0.106137 11.7403 0.139627C11.2431 0.360256 10.9313 0.87692 11.2284 1.36845C11.5255 1.85718 12.1021 1.90745 12.6198 1.78737C12.6492 1.80971 12.6816 1.82926 12.7198 1.83484C12.7198 1.83484 12.7198 1.83764 12.7198 1.84043C13.017 2.98267 13.2199 4.10816 13.4023 5.26437C13.2405 5.07167 13.0552 4.89572 12.8346 4.74491C11.3284 3.72276 9.331 4.52429 7.73366 3.73114C7.54245 3.63618 7.34241 3.75627 7.32476 3.95456C7.2071 5.3705 6.40107 6.83112 6.96588 8.24426C7.09531 8.57102 7.28358 8.86426 7.51009 9.12957C6.93646 8.95363 6.37459 8.7721 5.83332 8.49841C5.22733 8.19399 4.71253 7.79183 4.15949 7.4176C4.21245 7.35337 4.26245 7.28355 4.29481 7.20535C4.50073 6.70544 4.12125 6.1441 3.59469 6.01842C3.03871 5.88437 2.41801 6.27815 2.33858 6.81715C2.30916 7.00986 2.51214 7.11319 2.64746 7.0322C2.66217 7.27517 2.7916 7.51535 3.01223 7.65219C3.26522 7.8058 3.56527 7.79183 3.81826 7.67454C4.43896 8.31408 5.32441 8.84471 6.25104 9.19381C6.16868 9.21056 6.08631 9.22732 6.00394 9.25246C4.54192 9.6993 3.72412 11.2074 2.13266 11.375C1.90909 11.3973 1.75907 11.6459 1.94145 11.8162C3.13872 12.9473 3.40642 14.7514 4.93316 15.5921C5.41854 15.8602 5.93628 16.0082 6.46873 16.0724C5.2038 16.4299 3.95358 16.86 2.70629 17.2649C2.65334 17.1811 2.56215 17.1504 2.47684 17.1644C2.22386 16.5751 1.43842 16.2986 0.820664 16.5388C0.126422 16.8069 -0.191281 17.5973 0.111714 18.2396C0.411767 18.8792 1.21485 19.2674 1.91498 18.9797C2.48861 18.7423 2.87397 18.1279 2.7916 17.5414C4.0683 17.1867 5.35971 16.8544 6.6217 16.4522C6.44225 16.6058 6.27458 16.7818 6.12749 16.9829C5.12731 18.3569 5.68918 20.0074 4.26245 21.2363C4.11537 21.3619 4.18891 21.6217 4.38012 21.6636C6.04512 22.0294 7.97488 22.7192 9.66636 22.1104C9.94876 22.0099 10.2076 21.8758 10.4518 21.7166C9.8458 22.5489 9.26923 23.4035 8.68089 24.2441C8.51615 24.4787 8.18374 24.8194 8.09549 25.1378C7.80426 24.8892 7.39536 24.7887 7.00118 24.9199C6.4805 25.0931 6.20398 25.6628 6.33047 26.1599C6.4599 26.6738 6.98353 26.967 7.5248 26.8833C8.17197 26.7827 8.41908 26.2269 8.44261 25.6628C8.56616 25.6237 8.66618 25.4757 8.57499 25.3612C8.3926 25.1294 9.69283 23.5431 9.86639 23.2834C10.2782 22.669 10.6901 22.0545 11.0813 21.4318C10.8872 22.0043 10.7813 22.6019 10.8489 23.2303C10.9107 23.7972 11.1254 24.2636 11.3784 24.7691C11.9138 25.836 12.1903 26.7101 12.0874 27.9054C12.0668 28.1344 12.3933 28.2377 12.5522 28.0869C13.773 26.9307 15.6792 26.59 16.747 25.2746C16.9588 25.0149 17.1 24.7412 17.1971 24.4619C17.3913 25.6265 17.6295 26.7939 17.9002 27.9417C17.9296 28.0674 18.0414 28.1037 18.1414 28.0758C18.1032 28.0897 18.0649 28.0981 18.0296 28.1177C18.012 28.126 18.0031 28.14 17.9884 28.1484C17.453 28.0897 16.9647 28.6036 17.0324 29.1147C17.1089 29.7012 17.7737 30.067 18.3591 29.9916C18.9651 29.9134 19.5181 29.3437 19.3857 28.7432C19.271 28.221 18.6709 27.8998 18.1532 28.073C18.2502 28.0423 18.3297 27.9557 18.3061 27.8356C18.0531 26.5369 17.7472 25.2299 17.3942 23.9508C17.5178 24.2329 17.6825 24.5038 17.9031 24.7524C19.2239 26.2437 21.5861 25.4087 23.307 26.1515C23.5041 26.2353 23.7806 26.0929 23.7012 25.8639C23.1688 24.3111 24.6455 22.9399 24.269 21.4094C24.5072 21.5881 24.7514 21.7501 24.9191 21.8842C25.5515 22.3869 26.2105 22.9231 26.9224 23.3197C26.6517 23.5403 26.4752 23.881 26.4958 24.205C26.54 24.8473 27.343 25.1573 27.9314 25.0344C28.5403 24.9088 28.9727 24.2971 28.7315 23.719C28.5609 23.3085 28.0226 23.1102 27.6107 23.2722C27.6372 23.1856 27.5872 23.0767 27.4725 23.0851C27.3989 23.0907 27.3283 23.1074 27.2607 23.1298C27.2548 23.0935 27.2371 23.0599 27.1989 23.0292C26.9842 22.8617 25.2809 21.7306 24.3896 21.0073C24.8573 21.1972 25.3397 21.3284 25.7898 21.3536C27.2548 21.4373 27.9755 19.9879 29.364 19.7254C29.6493 19.6723 29.5934 19.3092 29.364 19.2283C28.0726 18.7786 28.7492 16.6645 27.7725 15.7205C28.7609 15.7931 29.7464 15.8462 30.7348 15.9495C30.7966 16.4969 31.3849 16.8963 31.9527 16.8488C32.6616 16.7874 33.1705 16.0836 32.947 15.4385V15.4412ZM28.4579 7.01265C28.6433 6.67193 29.0433 6.51833 29.4052 6.73337C29.817 6.97634 29.7964 7.52652 29.4346 7.8058C29.0816 8.0767 28.6403 7.94264 28.3344 7.6885C28.3197 7.4567 28.3403 7.23049 28.4579 7.01544V7.01265ZM22.5334 1.98844C22.6775 1.59187 23.1511 1.4634 23.5482 1.56394C24.0425 1.68683 24.4425 2.1979 24.0072 2.60565C23.7395 2.857 23.4159 2.94357 23.0746 2.97429C23.054 2.86538 22.9158 2.80114 22.7952 2.84583C22.5334 2.64195 22.4186 2.30682 22.5334 1.98844ZM12.6434 1.44944C12.6228 1.45782 12.611 1.46899 12.5963 1.48016C12.2962 1.51647 11.9815 1.50809 11.7461 1.31259C11.4343 1.05566 11.5667 0.720525 11.8873 0.555751C12.158 0.416112 12.5316 0.377013 12.7993 0.536201C13.2405 0.801515 13.064 1.27908 12.6404 1.44944H12.6434ZM3.91533 6.99589C3.86827 7.23328 3.56233 7.43715 3.30934 7.35616C3.01517 7.264 2.95634 6.90932 3.07695 6.67472C3.10931 6.61328 3.08872 6.54905 3.04753 6.50716C3.13872 6.44572 3.24463 6.40662 3.36818 6.40662C3.67411 6.40662 3.97417 6.69707 3.91533 6.99589ZM0.582386 18.1447C0.314691 17.7146 0.497077 17.1588 0.964807 16.9326C1.45019 16.7008 1.96204 16.9857 2.24151 17.3655C2.25621 17.3878 2.27975 17.4018 2.30034 17.4129C2.30034 17.4129 2.30034 17.4157 2.30034 17.4185C2.52979 18.4267 1.18543 19.111 0.582386 18.1419V18.1447ZM8.02195 25.5036C7.91016 25.8415 7.98371 26.2884 7.54539 26.4224C7.21592 26.523 6.85703 26.3722 6.78055 26.037C6.61287 25.2942 7.54245 25.0679 8.04548 25.4589C8.03666 25.4729 8.02783 25.4841 8.02195 25.5008V25.5036ZM18.2561 28.4807C18.5827 28.3439 18.9563 28.6176 18.9474 28.9443C18.9386 29.2906 18.5562 29.5643 18.2149 29.5727C17.9267 29.5811 17.5795 29.4191 17.4795 29.1454C17.3471 28.7823 17.6707 28.4751 18.0296 28.4612C18.0914 28.5003 18.1708 28.5142 18.2532 28.4779L18.2561 28.4807ZM28.3285 24.0067C28.3697 24.3865 27.9843 24.6211 27.6254 24.6155C27.2695 24.6099 26.8841 24.3893 26.9489 24.0151C26.9871 23.7833 27.1401 23.6297 27.3224 23.5012C27.2577 23.6716 27.4519 23.895 27.6402 23.7665C27.899 23.5906 28.2903 23.6548 28.3285 24.0067ZM27.7431 11.0706C28.2638 11.3861 28.7256 11.6347 29.2493 11.7352C28.9168 12.0145 28.658 12.3524 28.4844 12.7853C28.352 13.1121 28.3491 13.4723 28.2285 13.7991C27.9196 14.6313 27.2048 14.9581 26.4105 15.0531C25.5339 14.8324 24.5425 14.8576 23.7042 15.0167C23.7277 14.8492 23.7424 14.676 23.7512 14.5057C25.125 14.704 27.9726 14.8659 28.1873 13.154C28.4226 11.2884 26.0928 10.8723 24.6661 11.2772C24.5837 11.2996 24.5425 11.3526 24.5249 11.4085C24.0836 11.4783 23.6424 11.6598 23.2776 11.9084C23.2541 11.8553 23.2364 11.7995 23.2129 11.7464C23.26 11.752 23.307 11.7464 23.3541 11.7129C24.8779 10.6712 25.9722 10.0065 27.7402 11.0761L27.7431 11.0706ZM26.9371 18.019C26.7753 19.0411 25.3956 19.3148 24.366 19.1165C23.5541 18.9601 22.9099 18.5943 22.2892 18.1083C22.6922 17.6308 23.0276 17.103 23.2747 16.5388C24.4249 16.5248 27.1901 16.3601 26.8341 17.9073C26.8194 17.9715 26.8812 18.0218 26.94 18.0162L26.9371 18.019ZM23.4365 12.3078C23.8836 11.9866 24.3396 11.7939 24.8897 11.6431C25.5515 11.5286 26.2546 11.4532 26.8812 11.752C27.5107 12.0536 27.9314 12.8188 27.5548 13.4444C27.2048 14.0253 26.1634 14.1063 25.5368 14.1649C24.9426 14.2208 24.3543 14.2124 23.76 14.1677C23.76 13.9778 23.7483 13.7851 23.7277 13.5924C23.6777 13.1428 23.5747 12.7155 23.4365 12.305V12.3078ZM23.0599 6.06869C23.7277 6.04635 24.2954 5.94022 24.8544 5.69725C24.722 6.31166 24.7308 6.9149 24.8602 7.56562C25.0367 8.45931 25.2162 9.22173 24.719 9.99254C24.6602 10.0288 24.6043 10.0652 24.5425 10.1015C24.4602 10.1517 24.4543 10.2327 24.4925 10.2886C24.4778 10.3053 24.4602 10.3221 24.4455 10.3388C23.9336 10.6125 23.4688 10.9812 23.0687 11.3498C23.057 11.361 23.0511 11.3722 23.0423 11.3861C22.907 11.1348 22.7569 10.8946 22.5922 10.6656C23.6277 10.0037 25.5162 7.8449 23.8983 6.99031C23.9454 6.9177 23.9395 6.82274 23.8336 6.77806C22.3539 6.15247 20.5212 7.28634 20.5389 8.81678C20.3124 8.68273 20.08 8.55426 19.8358 8.44255C20.0741 6.75571 21.3273 6.13292 23.0629 6.07148L23.0599 6.06869ZM22.3451 10.35C21.8921 9.80263 21.3508 9.32786 20.7419 8.93966C20.7419 8.93687 20.7477 8.93408 20.7477 8.93129C21.086 7.59075 22.0833 6.92607 23.4629 7.06292C24.4896 7.43994 24.0748 8.61291 23.613 9.19939C23.2541 9.65462 22.8128 10.0065 22.3392 10.3528L22.3451 10.35ZM15.2674 3.58871C15.8733 3.15024 16.4882 2.82628 16.9824 2.30682C17.3677 2.86538 17.9208 3.2033 18.5121 3.61384C20.2682 4.83149 20.077 6.52671 19.071 8.13535C18.9298 8.08787 18.7886 8.04598 18.6474 8.00688C19.221 6.46247 19.0298 3.39321 16.5558 3.68645C14.5525 3.92384 14.3701 6.47644 15.0408 7.87841C14.8732 7.90913 14.7055 7.94544 14.5378 7.98454C14.529 7.96499 14.5172 7.94823 14.5025 7.93147C14.476 7.90634 14.4584 7.87003 14.4349 7.83931C14.3525 7.45391 14.2642 7.05733 14.1377 6.67193C14.123 6.41499 14.1201 6.17202 14.1142 5.99887C14.076 5.01023 14.4143 4.2087 15.2674 3.5915V3.58871ZM18.1885 7.89796C17.3618 7.7276 16.4911 7.68292 15.6145 7.78904C15.5262 7.80021 15.4409 7.81418 15.3556 7.82814C15.0703 6.67193 14.8702 4.63041 16.447 4.21149C17.3413 3.97411 18.1414 4.74212 18.3709 5.49338C18.618 6.30049 18.3591 7.10202 18.1885 7.89517V7.89796ZM7.31006 7.32544C7.21886 6.3368 7.65718 5.32302 7.82485 4.32879C8.76326 4.68068 9.69872 4.61645 10.7283 4.68627C12.4198 4.80077 13.1876 5.68329 13.62 6.91211C13.6641 7.16904 13.7347 7.41481 13.8318 7.62706C13.8671 7.77228 13.9024 7.91751 13.9318 8.06553C13.9377 8.09345 13.9495 8.113 13.9612 8.13535C13.87 8.16327 13.7818 8.19679 13.6935 8.22471C13.0581 7.40085 12.8375 6.38986 11.8638 5.81176C11.0401 5.32302 9.84874 5.06608 8.96329 5.55482C6.64523 6.8395 9.15156 9.21056 10.6636 10.0372C10.5195 10.1797 10.3812 10.3305 10.2547 10.4841C9.75167 10.1378 9.21039 9.78588 8.64265 9.52615C7.9484 8.95084 7.39831 8.2694 7.30711 7.31985L7.31006 7.32544ZM13.2082 8.40624C12.358 8.74696 11.5873 9.20498 10.946 9.7775C10.19 9.32786 9.39866 8.80561 8.93682 8.06832C8.02783 6.61607 9.34277 5.46545 10.8813 5.92347C11.805 6.19995 12.308 6.78923 12.7051 7.59075C12.8581 7.89796 12.9934 8.17444 13.2082 8.40624ZM4.2301 14.2739C3.62705 13.4695 3.29463 12.5563 2.65334 11.7939C3.30934 11.6235 3.84179 11.2772 4.40954 10.8527C4.97729 10.4282 5.5921 9.82497 6.32753 9.69371C7.21592 9.53732 8.02195 9.78588 8.76326 10.1769C8.94564 10.2914 9.13391 10.3975 9.32218 10.5008C9.53398 10.6349 9.74284 10.7745 9.94288 10.9142C9.84874 11.051 9.76343 11.1934 9.68401 11.3415C8.05136 10.6433 5.06554 9.892 4.56839 12.2603C4.13596 14.313 7.5248 15.3072 9.17215 15.1285C9.19569 15.243 9.22216 15.3547 9.25158 15.4636C7.44832 15.6786 5.43031 15.8825 4.2301 14.2822V14.2739ZM9.10743 14.7682C9.10743 14.7822 9.11332 14.7961 9.11626 14.8101C7.79838 14.8129 4.96552 14.1007 5.01259 12.5368C5.05083 11.2828 6.59816 10.9281 7.63953 11.0985C8.2867 11.2046 8.89269 11.4727 9.48397 11.7408C9.09273 12.6289 8.93976 13.6455 9.11038 14.7682H9.10743ZM9.11038 21.7362C7.8072 22.0573 6.29517 21.5937 4.98023 21.2698C5.42737 20.8034 5.72742 20.2867 5.88921 19.6416C6.30105 18.0134 6.41578 16.8265 8.06313 16.0473C8.4985 15.9914 8.93387 15.9021 9.35454 15.7959C9.39572 15.9188 9.44573 16.0389 9.49574 16.1562C8.07784 16.7064 5.8598 18.6948 6.96882 20.2811C8.21022 22.0573 10.9019 20.2113 11.9491 19.0719C12.0168 19.1165 12.0815 19.164 12.1521 19.2059C11.3608 20.2281 10.4783 21.3927 9.11038 21.7306V21.7362ZM9.60752 16.4243C10.0517 17.3766 10.7313 18.1726 11.5608 18.8038C10.6077 19.7896 8.37495 21.4653 7.44537 19.8957C6.63935 18.5329 8.47497 17.0946 9.60752 16.4243ZM17.0942 20.5073C16.5352 22.0797 17.406 23.962 16.0381 25.2495C15.0732 26.1571 13.7288 26.5453 12.6551 27.3189C12.6492 26.4615 12.458 25.6656 12.0462 24.8613C11.2608 23.328 11.299 21.9149 11.8638 20.4236C12.1286 20.1108 12.3757 19.7868 12.6081 19.4712C12.7699 19.555 12.9346 19.636 13.1023 19.7086C12.5875 21.1888 11.6314 24.1044 13.8612 24.7747C16.244 25.4924 16.547 21.9233 16.4146 20.5576C16.4087 20.5073 16.3881 20.471 16.3617 20.4403C16.6176 20.4487 16.8765 20.4515 17.1353 20.4403C17.1206 20.4599 17.1059 20.4794 17.0971 20.5046L17.0942 20.5073ZM15.8616 22.722C15.7822 23.0823 15.6704 23.4984 15.4409 23.8028C14.985 24.4089 13.9612 24.5848 13.3876 24.0234C12.2786 22.9371 13.1111 21.1329 13.4023 19.8343C14.226 20.161 15.1144 20.3621 16.0234 20.4291C15.994 20.4627 15.9734 20.5046 15.9763 20.5632C16.0145 21.2893 16.0145 22.0071 15.8586 22.722H15.8616ZM9.81933 15.472C8.70736 11.7296 11.6961 8.89219 15.4233 8.34201C16.6911 8.15489 17.9531 8.28616 19.0827 8.69111C19.1033 8.69949 19.121 8.70786 19.1445 8.71066C19.2416 8.74696 19.3387 8.78606 19.4328 8.82516C19.4593 8.84471 19.4887 8.85867 19.524 8.86147C21.0331 9.52056 22.2539 10.6935 22.8511 12.2742C22.7805 12.386 22.8422 12.506 22.9452 12.5507C22.9981 12.7183 23.0482 12.8859 23.0864 13.0618C23.8306 16.3349 21.2537 19.4852 17.9178 20.1024C17.8914 20.0354 17.8296 19.9879 17.7266 19.9935C14.3878 20.2113 10.793 18.7479 9.81933 15.4692V15.472ZM20.4153 19.6863C20.8566 20.2588 21.4243 20.7364 21.8273 21.3368C22.4039 22.197 22.7393 24.0234 21.0713 24.0961C19.1975 24.1771 18.1649 21.9875 18.3767 20.5185C19.1004 20.3398 19.7888 20.0577 20.4153 19.6863ZM23.4776 23.2834C23.2158 24.0877 22.954 24.7468 23.0687 25.5204C22.098 25.1964 21.2214 25.1825 20.1388 25.1545C17.6737 25.0903 17.503 22.8142 17.5207 20.9849C17.5472 20.8788 17.5736 20.7727 17.6119 20.6665C17.7619 20.647 17.909 20.6218 18.0561 20.5911C17.6737 22.4036 19.1769 24.9339 21.4008 24.5513C22.3245 24.3921 22.8658 23.5347 22.8511 22.6857C22.8275 21.3899 21.7009 20.3118 20.8095 19.4349C20.886 19.3819 20.9654 19.3316 21.0419 19.2757C21.0625 19.2953 21.086 19.3148 21.1155 19.3288C23.0217 20.175 24.1719 21.1413 23.4776 23.2834ZM28.0049 18.0832C28.0873 18.6166 28.2697 19.0719 28.6374 19.3902C28.0873 19.5913 27.6843 19.9041 27.1665 20.2895C26.1928 21.0128 24.9308 20.8145 23.8748 20.3174C23.8512 20.2337 23.7483 20.1666 23.6571 20.2113C23.5953 20.1778 23.5335 20.1443 23.4718 20.1108C22.9158 19.5969 22.1774 19.2394 21.4802 18.9294C21.6714 18.7647 21.8538 18.5859 22.0244 18.4044C22.9628 19.3288 24.4631 19.9041 25.8016 19.6192C26.8812 19.3902 27.8284 18.3792 27.2577 17.3264C27.2342 17.2845 27.2018 17.2621 27.1695 17.2482C26.9753 16.1981 24.569 16.0612 23.4394 16.1087C23.5071 15.9132 23.5688 15.7121 23.6159 15.5083C24.5278 15.4077 25.4309 15.3407 26.334 15.5893C27.749 15.9803 27.8196 16.8767 28.0049 18.0832ZM31.8644 16.4243C31.5673 16.4327 31.229 16.2288 31.1672 15.9412C31.0996 15.6339 31.3496 15.3603 31.6497 15.296C31.6703 15.296 31.6938 15.296 31.7173 15.2904C31.7321 15.2876 31.7438 15.2849 31.7585 15.2821C31.7938 15.2821 31.8321 15.2821 31.8703 15.2849C31.9262 15.2932 31.9703 15.2765 32.0056 15.2485C32.238 15.2485 32.4498 15.3351 32.5263 15.6004C32.6381 15.997 32.2969 16.4131 31.8674 16.4243H31.8644Z" fill="var(--fill-0, #793A4A)"/>
<path id="Vector_3" d="M17.5972 18.4351C17.4825 18.463 17.3854 18.53 17.3119 18.6138C17.1206 18.7702 17.0353 19.0439 17.2001 19.2785C17.456 19.6499 18.0943 19.6136 18.2414 19.1724C18.3709 18.7898 18.0473 18.3262 17.5972 18.4323V18.4351Z" fill="var(--fill-0, #793A4A)"/>
<path id="Vector_4" d="M15.3586 18.3907C15.0586 18.2316 14.682 18.3488 14.4967 18.6086C14.4467 18.6784 14.4526 18.7789 14.4967 18.846C14.532 18.9018 14.5703 18.9521 14.6144 18.9996C14.6379 19.1085 14.6938 19.2146 14.7732 19.2844C15.0144 19.5051 15.3939 19.4129 15.5557 19.1532C15.7175 18.8906 15.6528 18.5416 15.3616 18.3907H15.3586Z" fill="var(--fill-0, #793A4A)"/>
<path id="Vector_5" d="M13.4084 17.6085C13.3672 17.4242 13.2142 17.2817 13.0377 17.2119C12.8436 17.1365 12.5612 17.1449 12.4376 17.3292C12.4023 17.3823 12.3817 17.4409 12.3729 17.5024C12.3729 17.508 12.367 17.5107 12.367 17.5163C12.367 17.5247 12.367 17.5359 12.367 17.5443C12.2494 17.79 12.3494 18.1168 12.6318 18.2285C13.0348 18.3877 13.5055 18.0162 13.4143 17.6113L13.4084 17.6085Z" fill="var(--fill-0, #793A4A)"/>
<path id="Vector_6" d="M11.1932 15.1898C11.1196 15.1842 11.0461 15.1954 10.9784 15.2178C10.9402 15.1619 10.8696 15.1284 10.796 15.1787C10.5313 15.3518 10.4548 15.6981 10.6372 15.955C10.8549 16.265 11.3138 16.2064 11.5285 15.9271C11.7492 15.6395 11.5874 15.2178 11.1961 15.1898H11.1932Z" fill="var(--fill-0, #793A4A)"/>
<path id="Vector_7" d="M11.6873 12.3549C11.6109 12.3047 11.5108 12.26 11.4049 12.2321C11.3873 12.2181 11.3638 12.2097 11.3402 12.2069C11.3226 12.2069 11.3079 12.2069 11.2932 12.2069C11.1784 12.1902 11.0608 12.193 10.9637 12.2321C10.7754 12.3075 10.7489 12.5337 10.7989 12.7124C10.7989 12.7906 10.8078 12.8688 10.8431 12.9386C11.0372 13.324 11.6226 13.2598 11.8403 12.933C11.8933 12.8549 11.9286 12.7543 11.9256 12.6594C11.9197 12.5253 11.7962 12.4276 11.6873 12.3577V12.3549Z" fill="var(--fill-0, #793A4A)"/>
<path id="Vector_8" d="M13.4817 9.7972C13.3846 9.74414 13.2758 9.76369 13.1964 9.82513C12.9757 9.82513 12.7698 9.97873 12.711 10.1854C12.6345 10.4479 12.8257 10.7021 13.0934 10.7719C13.3611 10.8417 13.6464 10.716 13.7406 10.4619C13.8318 10.2133 13.7229 9.92846 13.4846 9.7972H13.4817Z" fill="var(--fill-0, #793A4A)"/>
<path id="Vector_9" d="M16.3383 9.23857C16.1294 9.30002 15.9823 9.48992 16.0235 9.69938C16.0412 9.79154 16.0971 9.87253 16.1706 9.9256C16.3383 10.2216 16.8384 10.1406 16.9943 9.85578C17.209 9.462 16.7178 9.12686 16.3383 9.23857Z" fill="var(--fill-0, #793A4A)"/>
<path id="Vector_10" d="M20.1068 10.0344C19.9538 9.94781 19.7656 9.93385 19.6156 10.0176C19.4126 10.0791 19.2449 10.2578 19.239 10.4729C19.2243 10.8583 19.6714 10.9756 19.9891 10.8471C20.1509 10.7829 20.2804 10.6628 20.3422 10.5036C20.4245 10.2913 20.301 10.1405 20.1098 10.0344H20.1068Z" fill="var(--fill-0, #793A4A)"/>
<path id="Vector_11" d="M21.8451 12.3241C21.8274 12.3185 21.8098 12.3129 21.7892 12.3129C21.4303 12.3045 21.2097 12.729 21.4009 13.0055C21.595 13.2848 22.0716 13.2876 22.2304 12.9748C22.3687 12.7011 22.1628 12.3353 21.8451 12.3241Z" fill="var(--fill-0, #793A4A)"/>
<path id="Vector_12" d="M21.9806 14.8545C21.7276 14.9159 21.4952 15.1533 21.5717 15.4158C21.6129 15.5583 21.7364 15.5946 21.8453 15.5611C21.8482 15.5639 21.8512 15.5694 21.857 15.5722C22.113 15.7817 22.5572 15.4466 22.5895 15.1868C22.6219 14.8992 22.21 14.7986 21.9835 14.8545H21.9806Z" fill="var(--fill-0, #793A4A)"/>
<path id="Vector_13" d="M21.345 16.7566C21.0537 16.6756 20.6566 16.8655 20.6978 17.1895C20.7007 17.2174 20.7096 17.2426 20.7184 17.2649C20.7213 17.3012 20.7301 17.3375 20.7419 17.371C20.8566 17.6922 21.2891 17.7257 21.5185 17.4967C21.7539 17.2621 21.7009 16.8544 21.345 16.7566Z" fill="var(--fill-0, #793A4A)"/>
</g>
<defs>
<clipPath id="clip0_0_4">
<rect width="33" height="30" fill="white"/>
</clipPath>
</defs>
</svg>
